<svg width="283" height="259" viewBox="0 0 283 259" fill="none" xmlns="http://www.w3.org/2000/svg">
<g clip-path="url(#clip0_30_81)">
<path d="M-1.53003 178.69L135.47 95.6899L283.47 178.69L148.47 257.69L-1.53003 178.69Z" fill="#FFA71F"/>
<path opacity="0.32" d="M158.85 195.28C151.93 191.65 113.79 188.59 107.42 184.06C106.05 183.06 110.42 179.33 110.33 177.98L67.9099 205.3L105.41 225.79L158.85 195.28Z" fill="url(#paint0_linear_30_81)"/>
<path opacity="0.32" d="M51.1999 173.82C50.5971 173.411 50.0926 172.873 49.7225 172.245C49.3525 171.617 49.1262 170.916 49.0599 170.19L19.3899 189.24L38.4599 199.76C38.5399 199.4 61.9999 181.26 61.9999 181.26C55.0799 177.63 57.5599 178.35 51.1999 173.82Z" fill="url(#paint1_linear_30_81)"/>
<path opacity="0.32" d="M236.86 183.67C236.789 183.561 236.752 183.435 236.752 183.305C236.752 183.175 236.789 183.049 236.86 182.94C237 182.69 233.24 181.94 233.38 181.68C233.56 181.06 231.14 180.93 231.31 180.31C224.97 177.5 223.67 176.53 218.85 171.87L171.5 202.27L198.32 219.27L234.56 196.9C234.66 196.43 244.54 192.14 236.86 183.67Z" fill="url(#paint2_linear_30_81)"/>
<path d="M143.24 53.35C127.24 61.4234 111.557 70.0334 96.1901 79.18C96.0899 79.2528 96.0204 79.3602 95.9949 79.4813C95.9694 79.6024 95.9897 79.7287 96.0519 79.8357C96.1141 79.9427 96.2138 80.0229 96.3317 80.0606C96.4496 80.0983 96.5773 80.091 96.6901 80.04C112.077 70.9 127.76 62.29 143.74 54.21C144.32 53.92 143.82 53.06 143.24 53.35Z" fill="#F7931E"/>
<path d="M136.06 61.92C134.625 62.1358 133.331 62.904 132.455 64.0605C131.579 65.217 131.189 66.6703 131.37 68.11C131.45 68.74 132.45 68.75 132.37 68.11C132.2 67.0007 132.443 65.8674 133.053 64.9254C133.663 63.9834 134.598 63.2983 135.68 63C135.637 65.7955 135.021 68.5524 133.87 71.1C133.61 71.68 134.47 72.19 134.73 71.6C136.068 68.7047 136.751 65.5497 136.73 62.36C136.723 62.2832 136.699 62.2088 136.66 62.1425C136.62 62.0762 136.566 62.0197 136.502 61.9774C136.437 61.935 136.364 61.9079 136.287 61.8979C136.211 61.888 136.133 61.8955 136.06 61.92Z" fill="#F7931E"/>
<path d="M135.31 73C134.96 72.46 134.1 73 134.45 73.5C134.558 73.7113 134.588 73.9542 134.533 74.1852C134.479 74.4163 134.344 74.6205 134.153 74.7612C133.961 74.9019 133.726 74.9699 133.49 74.9532C133.253 74.9365 133.03 74.8361 132.86 74.67C132.44 74.18 131.74 74.89 132.15 75.38C132.492 75.7159 132.943 75.9179 133.421 75.9494C133.899 75.9808 134.373 75.8395 134.755 75.5512C135.138 75.263 135.405 74.8468 135.506 74.3786C135.608 73.9104 135.538 73.4211 135.31 73Z" fill="#F7931E"/>
<path d="M99.69 182.7L139.69 159.44C140.086 159.215 140.534 159.096 140.99 159.096C141.446 159.096 141.894 159.215 142.29 159.44L165.13 172.17C165.438 172.344 165.694 172.597 165.872 172.903C166.05 173.209 166.144 173.556 166.144 173.91C166.144 174.264 166.05 174.611 165.872 174.917C165.694 175.223 165.438 175.476 165.13 175.65L149.69 184.72C149.478 184.844 149.303 185.023 149.183 185.237C149.063 185.451 149.002 185.694 149.007 185.94C149.012 186.185 149.083 186.425 149.212 186.634C149.341 186.844 149.523 187.015 149.74 187.13L158.74 191.91C159.044 192.077 159.298 192.323 159.475 192.622C159.652 192.921 159.745 193.263 159.745 193.61C159.745 193.957 159.652 194.298 159.475 194.597C159.298 194.897 159.044 195.143 158.74 195.31L137.32 207.48C136.774 207.8 136.153 207.969 135.52 207.969C134.887 207.969 134.266 207.8 133.72 207.48L99.55 186.84C99.1852 186.624 98.8851 186.315 98.6814 185.943C98.4776 185.571 98.3777 185.152 98.392 184.728C98.4063 184.305 98.5344 183.893 98.7628 183.536C98.9912 183.179 99.3115 182.89 99.69 182.7Z" fill="#3C6071"/>
<path d="M98.52 184.51C98.58 184.23 98.52 176.33 98.52 176.33L106.37 180.42L98.52 184.51Z" fill="#3C6071"/>
<path d="M159.82 193.47V185.32L152.65 189.79L159.82 193.47Z" fill="#3C6071"/>
<path d="M166.16 173.56V165.57L158.41 169.86L161.38 172.53L166.16 173.56Z" fill="#3C6071"/>
<path d="M99.6899 174.54L139.69 151.28C140.086 151.055 140.534 150.936 140.99 150.936C141.446 150.936 141.894 151.055 142.29 151.28L165.13 164C165.438 164.174 165.694 164.427 165.872 164.733C166.05 165.039 166.144 165.386 166.144 165.74C166.144 166.094 166.05 166.441 165.872 166.747C165.694 167.053 165.438 167.306 165.13 167.48L149.69 176.55C149.478 176.674 149.303 176.853 149.183 177.067C149.063 177.281 149.002 177.524 149.007 177.77C149.012 178.015 149.083 178.255 149.212 178.465C149.341 178.674 149.523 178.845 149.74 178.96L158.74 183.74C159.044 183.907 159.298 184.153 159.475 184.453C159.652 184.752 159.745 185.093 159.745 185.44C159.745 185.787 159.652 186.128 159.475 186.428C159.298 186.727 159.044 186.973 158.74 187.14L137.32 199.31C136.774 199.63 136.153 199.799 135.52 199.799C134.887 199.799 134.266 199.63 133.72 199.31L99.5499 178.67C99.1876 178.454 98.8899 178.144 98.6878 177.774C98.4858 177.403 98.3867 176.985 98.401 176.564C98.4153 176.142 98.5424 175.732 98.7691 175.376C98.9958 175.02 99.3138 174.731 99.6899 174.54Z" fill="#4D7C8E"/>
<path d="M126.25 175.56L127.88 176.56L122.62 179.48L114.27 174.02L119.33 171.2L120.96 172.2L117.37 174.2L119.05 175.29L121.87 173.72L123.49 174.72L120.66 176.29L122.52 177.5L126.25 175.56Z" fill="white"/>
<path d="M125.1 171.93C125.071 171.852 125.047 171.772 125.03 171.69C125.021 171.472 125.073 171.257 125.181 171.067C125.289 170.878 125.448 170.723 125.64 170.62C126.275 170.298 126.998 170.189 127.7 170.31C128.57 170.431 129.403 170.742 130.14 171.22L133.63 173.41L132.28 174.16L129 172.08C128.653 171.856 128.26 171.716 127.85 171.67C127.507 171.622 127.158 171.681 126.85 171.84C126.55 172.007 126.43 172.217 126.49 172.47C126.64 172.824 126.914 173.112 127.26 173.28L130.35 175.28L129 176L123 172.21L124.33 171.47L125.1 171.93Z" fill="white"/>
<path d="M127.73 167.49L128.91 166.83L130.82 168.01L131.82 167.46L133.3 168.38L132.3 168.93L134.7 170.42C134.897 170.538 135.12 170.607 135.35 170.62C135.563 170.646 135.779 170.607 135.97 170.51C136.05 170.467 136.124 170.413 136.19 170.35C136.238 170.307 136.278 170.256 136.31 170.2L137.73 171.08C137.545 171.341 137.297 171.55 137.01 171.69C135.977 172.263 134.763 172.117 133.37 171.25L131 169.68L130.16 170.15L128.69 169.23L129.13 168.98C129.195 168.951 129.247 168.9 129.276 168.835C129.306 168.771 129.311 168.698 129.29 168.63C129.209 168.434 129.06 168.274 128.87 168.18L127.73 167.49Z" fill="white"/>
<path d="M137.19 168.52C137.587 168.698 138.015 168.793 138.45 168.8C138.871 168.818 139.289 168.721 139.66 168.52C139.881 168.412 140.063 168.237 140.18 168.02C140.264 167.875 140.292 167.704 140.26 167.54V167.35L142.08 167.64V167.76C142.091 167.86 142.091 167.96 142.08 168.06C142.068 168.207 142.034 168.352 141.98 168.49C141.901 168.669 141.789 168.832 141.65 168.97C141.466 169.162 141.253 169.323 141.02 169.45C140.162 169.873 139.197 170.03 138.25 169.9C137.189 169.826 136.16 169.5 135.25 168.95C134.891 168.773 134.574 168.522 134.319 168.213C134.063 167.905 133.877 167.546 133.77 167.16C133.709 166.842 133.761 166.512 133.916 166.228C134.071 165.943 134.32 165.722 134.62 165.6C135.423 165.196 136.33 165.046 137.22 165.17C138.239 165.258 139.225 165.58 140.1 166.11L140.73 166.55L137.19 168.52ZM135.63 167.07C135.661 167.354 135.801 167.616 136.02 167.8L138.26 166.56C137.891 166.394 137.494 166.299 137.09 166.28C136.744 166.257 136.398 166.33 136.09 166.49C135.964 166.53 135.853 166.606 135.771 166.709C135.689 166.813 135.64 166.938 135.63 167.07Z" fill="white"/>
<path d="M142.7 163.14C142.521 163.187 142.35 163.258 142.19 163.35C141.837 163.543 141.7 163.783 141.78 164.07C141.86 164.357 142.163 164.657 142.69 164.97L145.64 166.74L144.29 167.49L138.15 163.79L139.48 163.05L140.23 163.5C140.23 163.447 140.21 163.37 140.17 163.27C140.163 163.104 140.197 162.939 140.27 162.79C140.375 162.546 140.563 162.348 140.8 162.23L141 162.12L142.7 163.14Z" fill="white"/>
<path d="M57.1299 77C57.1299 77 59.2299 73.25 59.8099 72.92C60.5449 72.4072 61.3855 72.0655 62.2699 71.92C62.7799 72.04 62.2699 73.34 62.2699 73.34C62.2699 73.34 67.2699 72.06 67.7799 72.44C68.2899 72.82 67.2699 74.57 66.3299 75.62C65.3899 76.67 58.7699 79.9 58.7699 79.9L57.1299 77Z" fill="#FFB7A2"/>
<path d="M67.22 72.92L70.61 66.92C70.6502 66.8446 70.6664 66.7587 70.6564 66.6738C70.6465 66.5889 70.6109 66.509 70.5544 66.4449C70.4978 66.3808 70.4231 66.3354 70.3401 66.3149C70.2571 66.2944 70.1699 66.2997 70.09 66.33L65.42 68.24C65.0855 68.378 64.8072 68.6246 64.63 68.94L61.48 74.51C63.37 73.84 65.32 73.47 67.22 72.92Z" fill="#42342D"/>
<path d="M51.17 37.8299C51.17 37.8299 45.09 37.2299 41.92 41.9799C38.75 46.7299 31.29 64.2699 33.21 65.7399C35.13 67.2099 45.54 68.9099 50.63 67.4399C55.72 65.9699 55.49 54.0899 55.49 54.0899" fill="#42342D"/>
<path d="M53.0001 160.28C53.0001 160.28 52.6701 169.28 54.3201 172.02C55.9701 174.76 64.1901 179.34 62.0201 181.27C59.8501 183.2 54.7301 182.27 53.0201 180.11C51.9205 178.627 50.9184 177.073 50.0201 175.46V178.87C50.0201 178.87 46.6001 176.87 46.6001 176.7C46.6001 176.53 45.8101 156.36 45.8101 156.36" fill="#42342D"/>
<path d="M40.53 164.07C40.53 164.07 40.2 173.07 41.86 175.77C43.52 178.47 52.18 184.71 49.99 186.63C47.8 188.55 42.69 186.78 40.57 184.15C39.3835 182.601 38.3456 180.944 37.47 179.2V182.6C37.47 182.6 34.02 180.6 34.02 180.43C34.02 180.26 33.23 160.15 33.23 160.15" fill="#42342D"/>
<path d="M56.85 88.16C57.29 89.29 61.31 155.29 57.07 163.69C53.6191 165.487 49.7428 166.306 45.86 166.06L44.47 171C44.47 171 34.05 174.23 26.53 171.09C26.53 171.09 30.13 102.35 35.45 89.61" fill="#748DE8"/>
<path d="M58.3701 74.27C58.4634 72.4567 58.5401 70.64 58.6001 68.82C58.7001 65.57 59.3601 61.06 57.0901 58.35C55.5901 56.55 53.0901 56.28 51.0901 55.55C50.1878 55.2333 49.2361 55.0808 48.2801 55.1C47.6544 55.1738 47.0379 55.3112 46.4401 55.51C44.1901 55.51 41.2201 57.38 39.1501 58.38C38.1501 58.88 37.5701 62.07 36.7001 62.82C34.8201 67.33 34.3901 67.66 34.3001 72.59C34.2452 72.6668 34.2014 72.7509 34.1701 72.84C33.6901 74.36 33.9501 79.71 34.3401 84.77C34.3401 84.87 34.3401 84.97 34.3401 85.07V85.01C34.5201 87.32 34.7301 89.56 34.9001 91.33C41.9001 94.13 49.7601 93.16 56.9001 90.9C57.4501 90.73 57.7101 82.96 57.8001 82.06C58.0001 79.47 58.2401 76.87 58.3701 74.27Z" fill="#05C69F"/>
<path d="M57.2399 43.9999C57.5399 44.1599 56.0999 58.2599 50.4299 56.9399C44.7599 55.6199 44.7999 50.9399 44.9299 49.7199C45.0599 48.4999 47.7199 45.5499 48.5999 44.3999C49.4799 43.2499 55.9999 43.2899 57.2399 43.9999Z" fill="#FFB7A2"/>
<path d="M58.63 42.5C57.9 38.95 51.63 36.24 45.83 38.97C42.22 40.67 38.67 50.49 42.67 52.48C46.67 54.47 45.67 53.48 45.67 53.48C45.6008 53.2376 45.5507 52.9902 45.52 52.74C45.4786 52.6422 45.4615 52.5359 45.47 52.43C45.47 52.34 45.47 52.25 45.47 52.17C45.47 52.09 45.47 52.04 45.47 51.98C45.6765 49.3334 46.7282 46.8233 48.47 44.82C50.24 43.05 52.65 43.16 54.95 43.49C55.7129 43.5249 56.4655 43.6802 57.18 43.95L56.82 47.61C57.5952 47.0344 58.1813 46.2409 58.5037 45.3308C58.826 44.4207 58.87 43.4352 58.63 42.5Z" fill="#42342D"/>
<path d="M57.27 46.34L52 45.92V44.18L51 46L49.47 45.62C49.47 45.62 46.87 53.68 45.66 53.5C44.45 53.32 43.92 49.34 44.38 47.26C44.84 45.18 47.33 41.17 51.49 41.15C55.65 41.13 58.22 42.53 57.27 46.34Z" fill="#42342D"/>
<path d="M49.7899 76.1501C47.7679 76.7403 45.7104 77.2012 43.6299 77.5301C42.9599 77.5301 42.1599 77.3601 41.9299 76.7301C41.8798 76.4893 41.8798 76.2408 41.9299 76.0001C42.1066 73.1839 42.4606 70.3817 42.9899 67.6101C43.3699 65.1301 43.7999 61.7401 42.5699 59.4201C40.7299 55.9801 37.1199 59.2301 35.7599 61.3301C33.5199 64.8201 33.2799 69.7401 33.1199 73.7601C32.5799 87.4001 35.9099 87.98 40.5099 87.84C45.1099 87.7 59.1399 84.2601 59.2599 82.3901C59.3399 81.2001 58.2599 77.8201 57.1199 75.6001C56.5699 74.6401 53.1099 75.3401 49.7899 76.1501Z" fill="#08B58C"/>
<path d="M49.5101 103.94C48.8434 124.7 47.4101 145.413 45.2101 166.08C45.1401 166.72 46.1401 166.71 46.2101 166.08C48.3901 145.413 49.8234 124.7 50.5101 103.94C50.5301 103.3 49.5301 103.3 49.5101 103.94Z" fill="white"/>
<path d="M213.44 96.11C213.44 96.17 217.24 89.58 216.66 83.7C216.08 77.82 208.66 82.05 208.66 82.05" fill="#FFB39C"/>
<path d="M215.63 66.5601C215.63 66.5601 209.27 69.6101 208.63 83.5601C208.63 83.5601 215.3 84.8601 218.19 84.1501" fill="#F05235"/>
<path d="M227.7 128C227.7 128 229.84 145.55 231.05 150C232.26 154.45 233.34 182.68 233.34 182.68C233.34 182.68 237.11 185.37 240.34 182.68C240.34 182.68 242.04 159.84 241.15 153.74C240.26 147.64 241.15 123.6 241.15 123.6" fill="#FFC6B2"/>
<path d="M215.35 123C215.35 123 214.92 135.94 215.35 140.21C215.78 144.48 217.63 171.5 217.63 171.5C218.501 172.249 219.611 172.661 220.76 172.661C221.909 172.661 223.019 172.249 223.89 171.5C223.89 171.5 225.96 158.13 225.71 155.57C225.46 153.01 225.03 120.72 225.03 120.72" fill="#FFC6B2"/>
<path d="M228.6 58.48C228.6 58.55 244.23 72.63 239.53 77.69C234.83 82.75 228.6 75.86 228.6 75.86L226.6 59.86" fill="#F18F22"/>
<path d="M227.7 192.84C227.395 193.51 227.298 194.257 227.423 194.983C227.548 195.709 227.888 196.38 228.4 196.91C230.2 198.83 232.56 197.91 234.55 196.91C236.54 195.91 242.18 190.91 241.4 189.6C240.62 188.29 240.33 182.77 240.33 182.77" fill="white"/>
<path d="M233.25 180.58C233.25 180.58 232.34 185.78 231.05 187.47C229.76 189.16 226.71 193.29 227.7 194.36C228.69 195.43 229.43 192.22 231.05 193.14C232.67 194.06 232.16 196.36 233.34 195.9C234.52 195.44 240.03 191.06 240.64 188.28C241.25 185.5 239.87 180.6 239.87 180.6" fill="#F05235"/>
<path d="M208 179.08C208 179.08 207.78 182.18 210.59 182.77C213.4 183.36 216.89 181.65 218.46 180.93C220.03 180.21 225.77 175.38 225.77 175.38L225.09 168.63" fill="white"/>
<path d="M217.39 168.15C217.39 168.15 215.71 172.33 212.67 173.9C209.63 175.47 207.27 178.51 207.95 179.07C208.63 179.63 210.09 177.61 210.87 178.17C211.65 178.73 211.65 181.17 212.61 180.58C213.57 179.99 215.61 181.58 218.4 179.63C221.19 177.68 220.31 176.93 222.67 176.03C225.03 175.13 225.03 168.61 225.03 168.61C225.03 168.61 219.08 169.94 217.39 168.15Z" fill="#F05235"/>
<path d="M214.82 99.47C213.416 103.67 212.605 108.046 212.41 112.47C211.97 120.31 215.16 166.18 215.16 166.18C219.841 167.921 224.942 168.19 229.78 166.95V177.43C229.78 177.43 237.85 180.05 246.67 174.43C246.67 174.43 245.26 108.58 235.67 100.35" fill="#F15A24"/>
<path d="M236.35 71.59C235.07 67.1 227.85 65.5 219.67 65.73C218.293 65.7342 216.932 66.0201 215.67 66.57C212.82 70.7 213.45 76.35 213.89 81.09C214.38 86.42 214.47 95.92 214.89 99.47C222.24 103.27 233.77 100.76 235.75 100.34C235.67 100.34 237.64 76.08 236.35 71.59Z" fill="#F05235"/>
<path d="M225.28 62.34L225.69 66.57C225.69 66.57 222.8 68.36 220.26 67.15L219.91 64.5" fill="#FFB39C"/>
<path d="M219 61.1C212.39 61.87 212.91 56.52 212.91 56.52C211.85 45.36 223.78 47.52 223.78 47.52C223.78 47.52 232.78 49.63 227.21 60.79" fill="#F18F22"/>
<path d="M214.14 52.56C214.14 52.56 214.63 66.33 220.3 65.68C225.97 65.03 225.65 60.33 225.65 60.33C225.65 60.33 226.46 51.74 221.76 50.12C217.06 48.5 214.14 52.56 214.14 52.56Z" fill="#FFC6B2"/>
<path d="M214.14 52.56C214.14 52.56 217.42 57.47 221.5 57.11C225.58 56.75 225.28 62.34 225.28 62.34C226.533 61.6455 227.561 60.6071 228.244 59.3473C228.926 58.0875 229.233 56.6589 229.13 55.23C229.13 52.23 224.88 47.23 220.95 47.47C217.02 47.71 213.23 49.77 214.14 52.56Z" fill="#F18F22"/>
<path d="M231.47 103.37C233.077 103.967 234.76 104.334 236.47 104.46C236.873 102.891 237.15 101.293 237.3 99.68C237.3 99.68 246.95 91.28 245.86 86.9C244.77 82.52 236.4 70.66 236.29 70.68C232.8 71.12 231.54 78.68 232.16 80.09C232.78 81.5 237.16 85.51 237.09 87.66C237.02 89.81 232.91 97 232.64 98C232.37 99 227.1 100.52 227.7 101.75C228.47 103.34 232.05 101.49 232.05 101.49C232.05 101.49 231.79 102.31 231.47 103.37Z" fill="#FFC6B2"/>
<path d="M234.11 68.4C237.37 71.3389 240.162 74.7583 242.39 78.54C242.39 78.54 238.5 83.75 234.55 85.01C230.6 86.27 234.55 84.42 234.55 84.42C234.55 84.42 230.55 81.64 229.84 79.18C229.13 76.72 234.11 68.4 234.11 68.4Z" fill="#F05235"/>
<path d="M203.59 72.92C203.558 72.7841 203.567 72.6418 203.616 72.5112C203.666 72.3806 203.753 72.2678 203.867 72.1872C203.981 72.1065 204.116 72.0618 204.256 72.0588C204.395 72.0557 204.533 72.0944 204.65 72.17C206.47 73.37 209.21 75.17 209.18 75.17C209.15 75.17 211.45 83.71 211.45 83.71L205.34 80.09L203.59 72.92Z" fill="#842E13"/>
<path d="M209.3 85.45C209.3 85.45 212.3 83.89 212.4 82.69C212.5 81.49 210.88 79.15 210.1 78.74C209.32 78.33 206.18 80.58 206.18 80.58L204.68 77.39C204.35 78.051 204.182 78.7812 204.19 79.52C204.29 80.52 204.68 87.59 205.75 88.52C206.82 89.45 209.94 89.3 210.13 88.52C210.32 87.74 209.3 85.45 209.3 85.45Z" fill="#FFC6B2"/>
<path d="M205 86.66C205 86.66 206.68 96.01 208.64 97.34C209.215 97.6933 209.882 97.8695 210.556 97.8467C211.231 97.824 211.884 97.6032 212.434 97.212C212.984 96.8207 213.407 96.2763 213.65 95.6465C213.893 95.0167 213.945 94.3293 213.8 93.67C213.25 90 209.42 84.4 209.42 84.4" fill="#FFC6B2"/>
<path d="M226.2 115.77C226.13 115.14 225.13 115.13 225.2 115.77C227.067 133.343 228.537 150.95 229.61 168.59C229.61 169.23 230.61 169.23 230.61 168.59C229.537 150.95 228.067 133.343 226.2 115.77Z" fill="#842E13"/>
<path d="M191.36 33.26L137.36 2.25999C137.012 2.0605 136.618 1.95653 136.218 1.95865C135.817 1.96076 135.424 2.06888 135.079 2.27203C134.733 2.47517 134.448 2.7661 134.251 3.11525C134.055 3.46441 133.954 3.85936 133.96 4.25999V24.26C133.963 25.2265 134.223 26.1748 134.713 27.0078C135.203 27.8407 135.906 28.5283 136.75 29L189.12 58.3C189.467 58.4945 189.859 58.5944 190.257 58.5898C190.654 58.5851 191.044 58.4761 191.386 58.2735C191.728 58.071 192.011 57.7821 192.207 57.4357C192.402 57.0893 192.503 56.6977 192.5 56.3V35.23C192.5 34.8303 192.395 34.4377 192.195 34.0918C191.995 33.7459 191.707 33.4589 191.36 33.26Z" fill="#F05235"/>
<path d="M187.51 54.0499V65.7499L177.75 51.1899" fill="#F05235"/>
<path d="M140.3 14.16L168.96 30.16C170.65 31.1 172.16 28.51 170.47 27.57L141.81 11.57C140.12 10.63 138.61 13.22 140.3 14.16Z" fill="#F2F2F2"/>
<path d="M139.05 22.15L182.37 46.3C184.06 47.24 185.57 44.65 183.88 43.71L140.57 19.56C138.88 18.62 137.37 21.21 139.06 22.15H139.05Z" fill="#F2F2F2"/>
<path d="M186.52 120.3L132.52 89.3C132.173 89.1005 131.779 88.9966 131.378 88.9987C130.977 89.0008 130.584 89.1089 130.239 89.3121C129.894 89.5152 129.608 89.8061 129.412 90.1553C129.215 90.5044 129.115 90.8994 129.12 91.3V111.3C129.12 112.27 129.378 113.222 129.868 114.059C130.359 114.896 131.064 115.587 131.91 116.06L184.28 145.37C184.627 145.565 185.019 145.664 185.417 145.66C185.814 145.655 186.204 145.546 186.546 145.344C186.888 145.141 187.172 144.852 187.367 144.506C187.563 144.159 187.664 143.768 187.66 143.37V122.27C187.66 121.87 187.555 121.478 187.355 121.132C187.155 120.786 186.867 120.499 186.52 120.3Z" fill="#F05235"/>
<path d="M182.67 141.09V152.79L172.91 138.24" fill="#F05235"/>
<path d="M135.07 102.56L163.73 118.56C165.42 119.5 166.93 116.91 165.24 115.97L136.58 99.97C134.89 99.03 133.38 101.62 135.07 102.56Z" fill="#F2F2F2"/>
<path d="M133.82 110.55L177.14 134.71C178.83 135.65 180.34 133.06 178.65 132.12L135.33 108C133.64 107.06 132.13 109.65 133.82 110.59V110.55Z" fill="#F2F2F2"/>
<path d="M89.3601 76.9L143.36 45.9C143.708 45.7005 144.102 45.5965 144.502 45.5987C144.903 45.6008 145.296 45.7089 145.641 45.912C145.987 46.1152 146.272 46.4061 146.468 46.7553C146.665 47.1044 146.766 47.4994 146.76 47.9V67.9C146.758 68.8618 146.502 69.8061 146.017 70.6368C145.533 71.4676 144.837 72.1553 144 72.63L91.6001 101.94C91.2531 102.135 90.8612 102.234 90.4635 102.23C90.0658 102.225 89.6763 102.116 89.334 101.914C88.9917 101.711 88.7086 101.422 88.5131 101.076C88.3176 100.729 88.2166 100.338 88.2201 99.94V78.87C88.2198 78.4703 88.3251 78.0777 88.5253 77.7318C88.7255 77.3859 89.0134 77.099 89.3601 76.9Z" fill="#05C69F"/>
<path d="M93.21 97.69V109.38L102.97 94.83" fill="#05C69F"/>
<path d="M138.23 58.11L109.57 74.11C107.88 75.05 109.39 77.64 111.08 76.7L139.74 60.7C141.43 59.76 139.92 57.17 138.23 58.11Z" fill="#F2F2F2"/>
<path d="M139.48 66.1L96.16 90.26C94.47 91.2 95.98 93.79 97.67 92.85L141 68.69C142.69 67.75 141.18 65.16 139.49 66.1H139.48Z" fill="#F2F2F2"/>
</g>
<defs>
<linearGradient id="paint0_linear_30_81" x1="97.3899" y1="217.04" x2="111.05" y2="202.73" gradientUnits="userSpaceOnUse">
<stop stop-color="white" stop-opacity="0"/>
<stop offset="1" stop-color="#FF6A00"/>
</linearGradient>
<linearGradient id="paint1_linear_30_81" x1="32.5899" y1="194.43" x2="41.5199" y2="184.32" gradientUnits="userSpaceOnUse">
<stop stop-color="white" stop-opacity="0"/>
<stop offset="1" stop-color="#FF6A00"/>
</linearGradient>
<linearGradient id="paint2_linear_30_81" x1="174.62" y1="214.1" x2="211.56" y2="193.95" gradientUnits="userSpaceOnUse">
<stop stop-color="white" stop-opacity="0"/>
<stop offset="1" stop-color="#FF6A00"/>
</linearGradient>
<clipPath id="clip0_30_81">
<rect width="283" height="259" fill="white"/>
</clipPath>
</defs>
</svg>
