<svg width="51" height="17" viewBox="0 0 51 17" fill="none" xmlns="http://www.w3.org/2000/svg">
<path d="M0.888 4.816C0.776 4.64 0.672 4.4 0.576 4.096C0.48 3.792 0.432 3.472 0.432 3.136C0.432 2.512 0.568 2.064 0.84 1.792C1.128 1.52 1.496 1.384 1.944 1.384H12.408C12.52 1.56 12.624 1.8 12.72 2.104C12.816 2.408 12.864 2.728 12.864 3.064C12.864 3.688 12.72 4.136 12.432 4.408C12.16 4.68 11.8 4.816 11.352 4.816H8.688V15.904C8.512 15.952 8.232 16 7.848 16.048C7.48 16.096 7.112 16.12 6.744 16.12C6.376 16.12 6.048 16.088 5.76 16.024C5.488 15.976 5.256 15.88 5.064 15.736C4.872 15.592 4.728 15.392 4.632 15.136C4.536 14.88 4.488 14.544 4.488 14.128V4.816H0.888ZM14.6319 0.375999C14.7919 0.327999 15.0479 0.279999 15.3999 0.232C15.7519 0.168 16.1119 0.136 16.4799 0.136C16.8319 0.136 17.1439 0.159999 17.4159 0.207999C17.7039 0.255999 17.9439 0.351999 18.1359 0.495999C18.3279 0.639999 18.4719 0.839999 18.5679 1.096C18.6639 1.336 18.7119 1.656 18.7119 2.056V4.408C19.1119 4.248 19.4879 4.136 19.8399 4.072C20.2079 4.008 20.6079 3.976 21.0399 3.976C21.8079 3.976 22.5359 4.112 23.2239 4.384C23.9119 4.656 24.5199 5.056 25.0479 5.584C25.5759 6.096 25.9919 6.736 26.2959 7.504C26.5999 8.272 26.7519 9.16 26.7519 10.168C26.7519 11.208 26.5919 12.12 26.2719 12.904C25.9679 13.672 25.5359 14.312 24.9759 14.824C24.4159 15.336 23.7279 15.728 22.9119 16C22.1119 16.256 21.2239 16.384 20.2479 16.384C19.1919 16.384 18.2959 16.256 17.5599 16C16.8239 15.76 16.1999 15.456 15.6879 15.088C14.9839 14.592 14.6319 13.952 14.6319 13.168V0.375999ZM20.2479 13.168C20.9839 13.168 21.5519 12.92 21.9519 12.424C22.3679 11.912 22.5759 11.16 22.5759 10.168C22.5759 9.16 22.3679 8.408 21.9519 7.912C21.5359 7.416 20.9759 7.168 20.2719 7.168C19.9519 7.168 19.6719 7.2 19.4319 7.264C19.2079 7.328 18.9599 7.424 18.6879 7.552V12.784C18.8639 12.896 19.0719 12.992 19.3119 13.072C19.5679 13.136 19.8799 13.168 20.2479 13.168ZM34.3322 3.976C34.9882 3.976 35.6282 4.072 36.2522 4.264C36.8922 4.44 37.4442 4.712 37.9082 5.08C38.3882 4.76 38.9242 4.496 39.5162 4.288C40.1242 4.08 40.8522 3.976 41.7002 3.976C42.3082 3.976 42.9002 4.056 43.4762 4.216C44.0682 4.376 44.5882 4.632 45.0362 4.984C45.5002 5.32 45.8682 5.776 46.1402 6.352C46.4122 6.912 46.5482 7.6 46.5482 8.416V15.976C46.3882 16.024 46.1322 16.072 45.7802 16.12C45.4442 16.168 45.0922 16.192 44.7242 16.192C44.3722 16.192 44.0522 16.168 43.7642 16.12C43.4922 16.072 43.2602 15.976 43.0682 15.832C42.8762 15.688 42.7242 15.496 42.6122 15.256C42.5162 15 42.4682 14.672 42.4682 14.272V8.536C42.4682 8.056 42.3322 7.712 42.0602 7.504C41.7882 7.28 41.4202 7.168 40.9562 7.168C40.7322 7.168 40.4922 7.224 40.2362 7.336C39.9802 7.432 39.7882 7.536 39.6602 7.648C39.6762 7.712 39.6842 7.776 39.6842 7.84C39.6842 7.888 39.6842 7.936 39.6842 7.984V15.976C39.5082 16.024 39.2442 16.072 38.8922 16.12C38.5562 16.168 38.2122 16.192 37.8602 16.192C37.5082 16.192 37.1882 16.168 36.9002 16.12C36.6282 16.072 36.3962 15.976 36.2042 15.832C36.0122 15.688 35.8602 15.496 35.7482 15.256C35.6522 15 35.6042 14.672 35.6042 14.272V8.536C35.6042 8.056 35.4522 7.712 35.1482 7.504C34.8602 7.28 34.5082 7.168 34.0922 7.168C33.8042 7.168 33.5562 7.216 33.3482 7.312C33.1402 7.392 32.9642 7.472 32.8202 7.552V15.976C32.6602 16.024 32.4042 16.072 32.0522 16.12C31.7162 16.168 31.3642 16.192 30.9962 16.192C30.6442 16.192 30.3242 16.168 30.0362 16.12C29.7642 16.072 29.5322 15.976 29.3402 15.832C29.1482 15.688 28.9962 15.496 28.8842 15.256C28.7882 15 28.7402 14.672 28.7402 14.272V7.024C28.7402 6.592 28.8282 6.248 29.0042 5.992C29.1962 5.736 29.4522 5.496 29.7722 5.272C30.3162 4.888 30.9882 4.576 31.7882 4.336C32.6042 4.096 33.4522 3.976 34.3322 3.976ZM48.0531 15.028C48.0531 14.692 48.1571 14.412 48.3651 14.188C48.5731 13.964 48.8571 13.852 49.2171 13.852C49.5771 13.852 49.8611 13.964 50.0691 14.188C50.2771 14.412 50.3811 14.692 50.3811 15.028C50.3811 15.364 50.2771 15.644 50.0691 15.868C49.8611 16.092 49.5771 16.204 49.2171 16.204C48.8571 16.204 48.5731 16.092 48.3651 15.868C48.1571 15.644 48.0531 15.364 48.0531 15.028Z" fill="#164056"/>
</svg>
