<svg width="315" height="233" viewBox="0 0 315 233" fill="none" xmlns="http://www.w3.org/2000/svg">
<g clip-path="url(#clip0_37_99)">
<path d="M133.62 20.88H0.620117V138.87H133.62V20.88Z" fill="#F2F2F2"/>
<path d="M133.62 120.54H0.620117V138.87H133.62V120.54Z" fill="#E6E6E6"/>
<path d="M11.76 134.66C14.8141 134.66 17.29 132.184 17.29 129.13C17.29 126.076 14.8141 123.6 11.76 123.6C8.70584 123.6 6.22998 126.076 6.22998 129.13C6.22998 132.184 8.70584 134.66 11.76 134.66Z" fill="#2D3250"/>
<path d="M25.0901 134.66C28.1442 134.66 30.6201 132.184 30.6201 129.13C30.6201 126.076 28.1442 123.6 25.0901 123.6C22.0359 123.6 19.5601 126.076 19.5601 129.13C19.5601 132.184 22.0359 134.66 25.0901 134.66Z" fill="#FFD200"/>
<path d="M27.6599 130.53C27.428 130.282 27.1579 130.073 26.8599 129.91C26.7912 129.87 26.7339 129.814 26.6936 129.745C26.6533 129.677 26.6314 129.599 26.6299 129.52L26.5399 128.74C25.8349 128.475 25.0624 128.446 24.3399 128.66L24.2099 129.42C24.2055 129.502 24.1791 129.582 24.1333 129.651C24.0876 129.719 24.0243 129.774 23.9499 129.81C23.6396 129.951 23.3555 130.144 23.1099 130.38C23.0689 130.422 23.02 130.455 22.9659 130.478C22.9118 130.501 22.8536 130.513 22.7949 130.513C22.7362 130.513 22.6781 130.501 22.624 130.478C22.5699 130.455 22.5209 130.422 22.4799 130.38L21.7799 129.63C21.6968 129.544 21.6504 129.429 21.6504 129.31C21.6504 129.191 21.6968 129.076 21.7799 128.99C22.7774 128.064 24.1011 127.57 25.4615 127.617C26.822 127.664 28.1085 128.247 29.0399 129.24C29.082 129.281 29.1154 129.33 29.1382 129.384C29.161 129.438 29.1727 129.496 29.1727 129.555C29.1727 129.614 29.161 129.672 29.1382 129.726C29.1154 129.78 29.082 129.829 29.0399 129.87L28.2899 130.57C28.2463 130.61 28.1952 130.64 28.1397 130.659C28.0841 130.679 28.0252 130.687 27.9665 130.683C27.9077 130.679 27.8503 130.664 27.7977 130.638C27.745 130.611 27.6982 130.575 27.6599 130.53Z" fill="white"/>
<path d="M38.4299 134.66C41.484 134.66 43.9599 132.184 43.9599 129.13C43.9599 126.076 41.484 123.6 38.4299 123.6C35.3758 123.6 32.8999 126.076 32.8999 129.13C32.8999 132.184 35.3758 134.66 38.4299 134.66Z" fill="#2D3250"/>
<path d="M13.0098 127.16H8.31982V131.1H13.0098V127.16Z" fill="white"/>
<path d="M15.1899 130.71L13.6299 130.19V128.21L15.1899 127.69V130.71Z" fill="white"/>
<path d="M38.4298 125.31H38.4198C37.5362 125.31 36.8198 126.026 36.8198 126.91V129.35C36.8198 130.234 37.5362 130.95 38.4198 130.95H38.4298C39.3135 130.95 40.0298 130.234 40.0298 129.35V126.91C40.0298 126.026 39.3135 125.31 38.4298 125.31Z" fill="white"/>
<path d="M38.7698 130.42H38.0898V132.32H38.7698V130.42Z" fill="white"/>
<path d="M39.84 132.14H37.02V132.94H39.84V132.14Z" fill="white"/>
<path d="M314.11 20.88H158.11V187.28H314.11V20.88Z" fill="#F2F2F2"/>
<path d="M314.11 165.77H158.11V187.27H314.11V165.77Z" fill="#E6E6E6"/>
<path d="M171.17 182.33C174.749 182.33 177.65 179.429 177.65 175.85C177.65 172.271 174.749 169.37 171.17 169.37C167.591 169.37 164.69 172.271 164.69 175.85C164.69 179.429 167.591 182.33 171.17 182.33Z" fill="#2D3250"/>
<path d="M186.82 182.33C190.399 182.33 193.3 179.429 193.3 175.85C193.3 172.271 190.399 169.37 186.82 169.37C183.241 169.37 180.34 172.271 180.34 175.85C180.34 179.429 183.241 182.33 186.82 182.33Z" fill="#FFD200"/>
<path d="M189.83 177.49C189.559 177.197 189.241 176.95 188.89 176.76C188.809 176.716 188.742 176.651 188.694 176.572C188.647 176.492 188.621 176.402 188.62 176.31L188.52 175.39C187.689 175.081 186.78 175.049 185.93 175.3L185.78 176.19C185.775 176.286 185.744 176.379 185.692 176.46C185.639 176.541 185.566 176.606 185.48 176.65C185.114 176.816 184.776 177.039 184.48 177.31C184.432 177.359 184.374 177.398 184.311 177.424C184.247 177.451 184.179 177.465 184.11 177.465C184.041 177.465 183.973 177.451 183.91 177.424C183.846 177.398 183.788 177.359 183.74 177.31L182.92 176.43C182.871 176.381 182.832 176.322 182.805 176.258C182.778 176.194 182.765 176.125 182.765 176.055C182.765 175.985 182.778 175.916 182.805 175.852C182.832 175.788 182.871 175.729 182.92 175.68C183.497 175.136 184.176 174.712 184.917 174.432C185.659 174.152 186.448 174.022 187.241 174.049C188.033 174.076 188.812 174.259 189.533 174.589C190.253 174.919 190.902 175.388 191.44 175.97C191.49 176.018 191.53 176.075 191.558 176.139C191.585 176.202 191.599 176.271 191.599 176.34C191.599 176.409 191.585 176.478 191.558 176.541C191.53 176.605 191.49 176.662 191.44 176.71L190.57 177.53C190.519 177.576 190.459 177.612 190.394 177.635C190.33 177.659 190.261 177.669 190.192 177.665C190.123 177.661 190.055 177.644 189.993 177.614C189.931 177.584 189.876 177.542 189.83 177.49Z" fill="white"/>
<path d="M202.46 182.33C206.039 182.33 208.94 179.429 208.94 175.85C208.94 172.271 206.039 169.37 202.46 169.37C198.881 169.37 195.98 172.271 195.98 175.85C195.98 179.429 198.881 182.33 202.46 182.33Z" fill="#2D3250"/>
<path d="M172.65 173.54H167.15V178.16H172.65V173.54Z" fill="white"/>
<path d="M175.2 177.7L173.38 177.09V174.77L175.2 174.16V177.7Z" fill="white"/>
<path d="M202.7 171.37H202.22C201.314 171.37 200.58 172.104 200.58 173.01V176.35C200.58 177.256 201.314 177.99 202.22 177.99H202.7C203.606 177.99 204.34 177.256 204.34 176.35V173.01C204.34 172.104 203.606 171.37 202.7 171.37Z" fill="white"/>
<path d="M202.86 177.36H202.06V179.59H202.86V177.36Z" fill="white"/>
<path d="M204.11 179.38H200.8V180.32H204.11V179.38Z" fill="white"/>
<path d="M144.17 165.17H52.5V232.7H144.17V165.17Z" fill="#F2F2F2"/>
<path d="M144.17 152.53H52.5V165.17H144.17V152.53Z" fill="#E6E6E6"/>
<path d="M60.1801 162.66C62.2843 162.66 63.9901 160.954 63.9901 158.85C63.9901 156.746 62.2843 155.04 60.1801 155.04C58.0759 155.04 56.3701 156.746 56.3701 158.85C56.3701 160.954 58.0759 162.66 60.1801 162.66Z" fill="#2D3250"/>
<path d="M69.3701 162.66C71.4743 162.66 73.1801 160.954 73.1801 158.85C73.1801 156.746 71.4743 155.04 69.3701 155.04C67.2659 155.04 65.5601 156.746 65.5601 158.85C65.5601 160.954 67.2659 162.66 69.3701 162.66Z" fill="#FFD200"/>
<path d="M71.1398 159.82C70.9824 159.646 70.7964 159.501 70.5898 159.39C70.5408 159.364 70.4999 159.325 70.4717 159.278C70.4434 159.23 70.4289 159.175 70.4298 159.12L70.3698 158.58C69.882 158.399 69.3485 158.381 68.8498 158.53L68.7598 159.05C68.7601 159.108 68.7432 159.164 68.7111 159.213C68.679 159.261 68.6333 159.298 68.5798 159.32C68.3706 159.419 68.1783 159.551 68.0098 159.71C67.981 159.739 67.9467 159.762 67.909 159.778C67.8712 159.793 67.8307 159.802 67.7898 159.802C67.7489 159.802 67.7084 159.793 67.6706 159.778C67.6329 159.762 67.5986 159.739 67.5698 159.71L67.0898 159.19C67.0611 159.162 67.0382 159.129 67.0227 159.092C67.0071 159.055 66.999 159.015 66.999 158.975C66.999 158.935 67.0071 158.895 67.0227 158.858C67.0382 158.821 67.0611 158.788 67.0898 158.76C67.7744 158.119 68.6854 157.776 69.6229 157.806C70.5604 157.836 71.4476 158.236 72.0898 158.92C72.1188 158.949 72.1419 158.983 72.1576 159.021C72.1733 159.059 72.1814 159.099 72.1814 159.14C72.1814 159.181 72.1733 159.221 72.1576 159.259C72.1419 159.297 72.1188 159.331 72.0898 159.36L71.5798 159.84C71.5497 159.868 71.5144 159.889 71.4759 159.903C71.4374 159.917 71.3965 159.924 71.3556 159.922C71.3147 159.92 71.2746 159.91 71.2375 159.892C71.2005 159.875 71.1673 159.85 71.1398 159.82Z" fill="white"/>
<path d="M78.56 162.66C80.6642 162.66 82.37 160.954 82.37 158.85C82.37 156.746 80.6642 155.04 78.56 155.04C76.4558 155.04 74.75 156.746 74.75 158.85C74.75 160.954 76.4558 162.66 78.56 162.66Z" fill="#2D3250"/>
<path d="M61.0401 157.49H57.8101V160.21H61.0401V157.49Z" fill="white"/>
<path d="M62.5502 159.94L61.4702 159.59V158.22L62.5502 157.86V159.94Z" fill="white"/>
<path d="M79.67 157.33C79.67 156.717 79.1752 156.22 78.565 156.22C77.9547 156.22 77.46 156.717 77.46 157.33V159C77.46 159.613 77.9547 160.11 78.565 160.11C79.1752 160.11 79.67 159.613 79.67 159V157.33Z" fill="white"/>
<path d="M78.8001 159.74H78.3301V161.05H78.8001V159.74Z" fill="white"/>
<path d="M79.5298 160.93H77.5898V161.48H79.5298V160.93Z" fill="white"/>
<path d="M190.87 200.7H158.11V232.53H190.87V200.7Z" fill="#F2F2F2"/>
<path d="M314.1 204.2H204.11V209.2H314.1V204.2Z" fill="#F2F2F2"/>
<path d="M314.1 214.12H204.11V219.12H314.1V214.12Z" fill="#F2F2F2"/>
<path d="M294.11 224.04H204.11V229.04H294.11V224.04Z" fill="#F2F2F2"/>
<path opacity="0.58" d="M17.4099 213.24C17.4099 213.24 2.9999 209.31 -0.100098 195.92C-0.100098 195.92 22.1899 191.41 22.8199 214.42L17.4099 213.24Z" fill="#2D3250"/>
<path opacity="0.73" d="M19.1798 211.81C19.1798 211.81 9.11977 195.92 17.9998 181.06C17.9998 181.06 34.9998 191.82 27.4198 211.84L19.1798 211.81Z" fill="#2D3250"/>
<path d="M21.77 211.82C21.77 211.82 27.08 195.04 43.13 191.82C43.13 191.82 46.13 202.72 32.74 211.82H21.77Z" fill="#2D3250"/>
<path d="M11.3301 211.44L14.2501 231.39L32.6201 231.47L35.3201 211.54L11.3301 211.44Z" fill="#24285B"/>
<path d="M91.3199 53C91.3199 53 116.77 57.81 132.1 52.38C147.43 46.95 137.25 27.17 121.9 16.75L128.61 11.17C128.61 11.17 169.76 38.27 147.44 68.7C125.12 99.13 70.4399 93.49 91.3199 53Z" fill="#2D3250"/>
<path opacity="0.46" d="M91.3199 53C91.3199 53 116.77 57.81 132.1 52.38C147.43 46.95 137.25 27.17 121.9 16.75L128.61 11.17C128.61 11.17 169.76 38.27 147.44 68.7C125.12 99.13 70.4399 93.49 91.3199 53Z" fill="white"/>
<path d="M35.6802 120.54H102.68C108.76 106.3 128.93 51.64 80.5402 51.79C76.5946 51.8407 72.6578 52.1749 68.7602 52.79C67.1302 53.03 65.4402 53.32 63.6802 53.66C63.6802 53.66 17.7802 52.92 22.0802 77.39C25.3402 95.82 32.4102 113.15 35.6802 120.54Z" fill="#2D3250"/>
<path opacity="0.08" d="M74.9998 66.3C67.3298 70.14 66.0598 62.47 66.0598 62.47C64.7198 60.53 66.4598 56.26 68.7198 52.75C72.6174 52.1349 76.5542 51.8007 80.4998 51.75C80.6898 56.54 79.9998 63.8 74.9998 66.3Z" fill="black"/>
<path d="M64.5001 53.8001C64.8314 54.8732 65.0985 55.9652 65.3001 57.0701C65.5601 58.5801 66.3701 60.7801 68.8401 60.8901C72.6501 61.0501 72.8401 55.0501 72.8401 55.0501C72.8401 55.0501 74.4001 49.2201 70.2701 49.0501C66.5301 48.8601 63.0601 48.8501 64.5001 53.8001Z" fill="#F4A28C"/>
<path d="M72.6099 55.32C72.6099 55.32 72.6099 53.5 74.1299 53.32C75.6499 53.14 75.5499 56.63 72.6099 55.32Z" fill="#F4A28C"/>
<path d="M65.6302 55.29C65.6302 55.29 65.9302 53.5 64.4102 53.13C62.8902 52.76 62.5202 56.15 65.6302 55.29Z" fill="#F4A28C"/>
<path opacity="0.08" d="M40.6002 120.54H90.2601C90.2601 120.54 39.2601 112.05 46.4501 98.34C53.6401 84.63 46.4501 69.39 46.4501 69.39L23.1602 84.62L26.8702 109.62L40.6002 120.54Z" fill="black"/>
<path d="M64.5001 53.7999C64.5001 53.7999 58.3701 53.7999 60.4401 48.9799C62.5101 44.1599 63.5601 47.4099 64.3501 43.8099C65.1401 40.2099 66.1901 39.3799 68.2601 40.5899C70.3301 41.7999 68.9501 45.0999 71.6401 43.8499C74.3301 42.5999 76.1401 41.5199 77.0101 43.7699C77.8801 46.0199 77.5001 47.2199 75.7901 48.2699C74.0801 49.3199 77.3801 52.0699 73.0101 53.9899C68.6401 55.9099 65.5601 51.2599 65.5601 51.2599L64.5001 53.7999Z" fill="#24285B"/>
<path d="M17.8798 120.54H68.4498L67.7598 117.64C67.7598 117.64 24.0998 112 29.1498 98.27C33.3498 86.82 53.3098 80.78 45.2898 66.94C44.4167 65.478 43.2632 64.203 41.8956 63.1884C40.528 62.1738 38.9733 61.4395 37.321 61.0278C35.6686 60.6161 33.9512 60.5351 32.2674 60.7895C30.5837 61.0439 28.9668 61.6286 27.5098 62.51C15.5998 69.6 -2.9102 84.19 2.1098 104.39C4.1298 112.51 10.1898 117.53 17.8798 120.54Z" fill="#2D3250"/>
<path opacity="0.46" d="M17.8798 120.54H68.4498L67.7598 117.64C67.7598 117.64 24.0998 112 29.1498 98.27C33.3498 86.82 53.3098 80.78 45.2898 66.94C44.4167 65.478 43.2632 64.203 41.8956 63.1884C40.528 62.1738 38.9733 61.4395 37.321 61.0278C35.6686 60.6161 33.9512 60.5351 32.2674 60.7895C30.5837 61.0439 28.9668 61.6286 27.5098 62.51C15.5998 69.6 -2.9102 84.19 2.1098 104.39C4.1298 112.51 10.1898 117.53 17.8798 120.54Z" fill="white"/>
<path d="M123.6 15.35C122.89 15.93 121.24 13.22 121.07 12.83C120.27 11.0087 119.618 9.12592 119.12 7.20001C120.048 7.56521 120.812 8.25448 121.27 9.14001C121.41 7.55001 120.69 5.89001 121.21 4.38001C121.284 4.06294 121.467 3.78165 121.726 3.58453C121.985 3.38741 122.305 3.2868 122.63 3.30001C124.36 3.25001 125.71 4.80001 126.46 6.36001C127.12 7.56187 127.711 8.80057 128.23 10.07C128.63 11.24 128.02 11.65 127.15 12.39C126 13.39 124.78 14.36 123.6 15.35Z" fill="#F4A28C"/>
<path d="M77.8198 120.54C77.9103 120.475 77.9871 120.394 78.0457 120.299C78.1043 120.205 78.1436 120.099 78.1613 119.99C78.1789 119.88 78.1747 119.768 78.1486 119.66C78.1226 119.552 78.0754 119.45 78.0098 119.36C76.3598 116.89 67.7598 117.64 67.7598 117.64L68.4498 120.54H77.8198Z" fill="#F4A28C"/>
<path d="M45.5601 152.53H0.620117V175.84H45.5601V152.53Z" fill="#F2F2F2"/>
<path d="M126.79 187C126.79 187 139.54 193.55 143.91 190.55C148.28 187.55 149.53 171 149.53 171L155.53 172.32C155.53 172.32 157.83 205.23 147.71 208.64C137.59 212.05 119.89 203.32 119.89 203.32L126.79 187Z" fill="#F4A28C"/>
<path d="M92.0002 187C96.2002 195.35 105.41 206.55 124.95 208.61L129.13 187.61C129.13 187.61 114.27 178.22 98.5502 177.06C97.3436 176.982 96.1377 177.224 95.0552 177.763C93.9726 178.301 93.0518 179.117 92.3865 180.127C91.7212 181.136 91.335 182.304 91.2671 183.511C91.1993 184.719 91.4522 185.922 92.0002 187Z" fill="#2D3250"/>
<path opacity="0.46" d="M92.0002 187C96.2002 195.35 105.41 206.55 124.95 208.61L129.13 187.61C129.13 187.61 114.27 178.22 98.5502 177.06C97.3436 176.982 96.1377 177.224 95.0552 177.763C93.9726 178.301 93.0518 179.117 92.3865 180.127C91.7212 181.136 91.335 182.304 91.2671 183.511C91.1993 184.719 91.4522 185.922 92.0002 187Z" fill="white"/>
<path d="M149.82 171C149.53 170.93 149.23 164.57 150 165.16C150.5 165.639 150.848 166.255 151 166.93C151 166.93 151 162.43 153.32 162.93C155.64 163.43 156.43 168.61 155.51 172.25L149.82 171.2" fill="#F4A28C"/>
<path d="M95.3901 158C95.7103 160.349 95.7103 162.731 95.3901 165.08C95.3351 165.356 95.2263 165.618 95.0699 165.852C94.9135 166.086 94.7125 166.286 94.4784 166.442C94.2444 166.599 93.9818 166.707 93.7059 166.761C93.4299 166.816 93.1459 166.815 92.8701 166.76C91.969 166.632 91.124 166.246 90.436 165.651C89.7479 165.055 89.246 164.273 88.9901 163.4L87.5201 159.76C87.303 158.999 87.3268 158.19 87.5882 157.443C87.8496 156.697 88.3359 156.049 88.9801 155.59C91.3201 153.7 95.1601 155.38 95.3901 158Z" fill="#F4A28C"/>
<path d="M87.8099 160.39L86.3599 174.27L94.0699 174.52L92.0299 164.32L87.8099 160.39Z" fill="#F4A28C"/>
<path d="M94.35 158.21C93.0371 158.324 91.7154 158.291 90.41 158.11C90.8213 158.669 91.0602 159.336 91.0975 160.029C91.1349 160.722 90.9689 161.41 90.62 162.01C90.2917 162.596 89.7698 163.049 89.1439 163.291C88.518 163.534 87.8272 163.551 87.19 163.34L86.97 157.88C86.9055 157.094 87.0579 156.306 87.4106 155.6C87.7632 154.895 88.3026 154.3 88.97 153.88C89.537 153.508 90.1283 153.173 90.74 152.88C92.28 152.16 94.64 153.09 96 151.95C96.1339 151.829 96.2982 151.746 96.4754 151.71C96.6526 151.675 96.8361 151.688 97.0063 151.749C97.1766 151.809 97.3273 151.915 97.4424 152.054C97.5575 152.193 97.6327 152.361 97.66 152.54C97.99 154.19 97.84 156.82 95.66 157.85C95.2446 158.037 94.8027 158.159 94.35 158.21Z" fill="#24285B"/>
<path d="M91.0699 161.85C91.0699 161.85 90.9498 160.22 89.7198 160.41C88.4898 160.6 88.6598 162.97 90.3398 163.1L91.0699 161.85Z" fill="#F4A28C"/>
<path d="M95.6299 160.65L96.8999 162.22C96.9721 162.31 97.0204 162.417 97.0405 162.531C97.0606 162.645 97.0519 162.762 97.0151 162.871C96.9783 162.98 96.9145 163.079 96.8298 163.157C96.745 163.236 96.6419 163.292 96.5299 163.32L94.9199 163.71L95.6299 160.65Z" fill="#F4A28C"/>
<path opacity="0.31" d="M92.57 166.53C91.5999 166.341 90.7064 165.871 90 165.18C90.4021 167.159 91.5382 168.913 93.18 170.09L92.57 166.53Z" fill="#CE8172"/>
<path d="M112.89 232.7C115.5 227.13 121.09 212.95 119.68 196.06C117.86 174.21 93.8602 174.31 93.8602 174.31L90.4402 174.2C85.9654 174.017 81.5471 175.253 77.8168 177.731C74.0866 180.21 71.2352 183.804 69.6702 188C64.2202 203.1 73.2502 224.27 77.4202 232.74L112.89 232.7Z" fill="#2D3250"/>
<path opacity="0.08" d="M77.3298 232.7H89.6298C88.7098 230.06 87.9998 225.43 88.8398 217.5C90.5298 201.78 85.9298 185.55 85.9298 185.55C68.3998 186.19 73.7198 223.46 74.7098 226.78C75.4205 228.821 76.2968 230.801 77.3298 232.7Z" fill="black"/>
<path d="M74.8398 179.69C67.4098 185.36 58.1198 196.48 59.7198 216.06L81.1098 216.28C81.1098 216.28 87.5798 199.94 85.7998 184.28C85.6532 183.082 85.1923 181.945 84.4639 180.983C83.7356 180.021 82.7657 179.268 81.6527 178.802C80.5397 178.336 79.3232 178.173 78.1267 178.329C76.9302 178.485 75.7962 178.954 74.8398 179.69Z" fill="#2D3250"/>
<path opacity="0.46" d="M74.8398 179.69C67.4098 185.36 58.1198 196.48 59.7198 216.06L81.1098 216.28C81.1098 216.28 87.5798 199.94 85.7998 184.28C85.6532 183.082 85.1923 181.945 84.4639 180.983C83.7356 180.021 82.7657 179.268 81.6527 178.802C80.5397 178.336 79.3232 178.173 78.1267 178.329C76.9302 178.485 75.7962 178.954 74.8398 179.69Z" fill="white"/>
<path d="M73.82 232.7C74.3539 227.046 75.7221 221.503 77.88 216.25L61.74 216.08C61.7075 221.63 61.9679 227.178 62.52 232.7H73.82Z" fill="#F4A28C"/>
<path d="M242.61 19.09C242.61 19.09 249.21 13.5 254.41 17.4C259.61 21.3 256.07 37.09 267.41 33.46C267.41 33.46 255.12 43.65 246.52 27.01L242.61 19.09Z" fill="#24285B"/>
<path d="M247.88 29.91C247.88 29.91 252.37 29.28 250.51 23.16C248.65 17.04 243.58 17.26 242.13 18.87L247.88 29.91Z" fill="#2D3250"/>
<path d="M234.46 26.6001C234.771 29.561 235.477 32.4668 236.56 35.2401C236.711 35.5603 236.924 35.8475 237.186 36.0853C237.449 36.323 237.756 36.5066 238.089 36.6255C238.423 36.7445 238.777 36.7964 239.13 36.7783C239.484 36.7602 239.83 36.6724 240.15 36.5201C241.206 36.0878 242.117 35.3633 242.776 34.4317C243.435 33.5 243.814 32.3998 243.87 31.2601L244.56 26.3601C244.594 25.3662 244.318 24.3865 243.772 23.5555C243.226 22.7246 242.436 22.0833 241.51 21.7201C238.14 20.1601 234 23.3701 234.46 26.6001Z" fill="#F4A28C"/>
<path d="M245.66 29.09L249.14 46.28L239.53 47.52L240.82 34.84L245.66 29.09Z" fill="#F4A28C"/>
<path d="M235 29.9301L233.93 32.2401C233.87 32.371 233.843 32.515 233.853 32.6589C233.863 32.8028 233.909 32.9418 233.987 33.0633C234.064 33.1848 234.171 33.2848 234.298 33.3541C234.424 33.4235 234.566 33.4599 234.71 33.4601H236.79L235 29.9301Z" fill="#F4A28C"/>
<path opacity="0.31" d="M240.79 35.2001C241.92 34.8426 242.933 34.1861 243.72 33.3C243.72 33.3 244.83 36.9701 240.42 38.8301L240.79 35.2001Z" fill="#CE8172"/>
<path d="M245.3 29.1701C245.3 29.1701 244.95 27.1701 246.5 27.0101C248.05 26.8501 248.57 29.8001 246.56 30.4701L245.3 29.1701Z" fill="#F4A28C"/>
<path d="M235.52 26.1399C237.241 26.2268 238.965 26.0275 240.62 25.5499C240.62 25.5499 242.38 31.3299 247.23 32.2799C247.23 32.2799 250.67 22.9599 244.83 20.1599C239.95 17.8199 236.26 15.6599 232.89 19.4999C232.399 20.0534 232.07 20.7325 231.942 21.4615C231.813 22.1906 231.889 22.941 232.162 23.6292C232.435 24.3175 232.893 24.9166 233.486 25.3599C234.079 25.8032 234.783 26.0732 235.52 26.1399Z" fill="#24285B"/>
<path d="M227.45 99.19C227.45 99.19 227.14 136.19 202.11 138.63C177.08 141.07 162.57 92.09 162.42 91.63C162.05 90.37 160.01 89.21 159.28 88.03C158.258 86.3599 157.721 84.4381 157.73 82.48C157.722 82.2691 157.767 82.0594 157.86 81.87C157.966 81.731 158.112 81.6284 158.279 81.5765C158.445 81.5245 158.624 81.5257 158.79 81.58C159.124 81.6911 159.431 81.8717 159.69 82.11C159.349 80.9721 159.191 79.7875 159.22 78.6C159.29 76.09 161.22 73.29 163.4 75.99C164.379 77.4032 165.128 78.9625 165.62 80.61C166.27 82.37 166.82 84.18 167.33 85.99C167.456 86.8388 167.678 87.6707 167.99 88.47C167.99 88.47 182.52 114 194.63 115.98C206.74 117.96 196.74 78.09 224 58.62C251.26 39.15 227.45 99.19 227.45 99.19Z" fill="#F4A28C"/>
<path d="M240.88 28.6601C240.88 28.6601 240.88 26.2701 242.78 26.4301C244.68 26.5901 244.99 29.3501 242.78 30.7101L240.88 28.6601Z" fill="#F4A28C"/>
<path d="M249.14 46.28L239.53 47.52C239.53 47.52 187.53 72.52 217.29 107.65C219.805 110.577 221.414 114.174 221.92 118L224.62 139.59H263.69C263.69 139.59 320.12 58.89 249.14 46.28Z" fill="#2D3250"/>
<path opacity="0.08" d="M248.86 66.27C248.86 66.27 237.93 82.83 252.91 98.51C267.89 114.19 259.2 127.86 242.13 117.12C225.06 106.38 222.3 120.38 222.3 120.38L223.3 129.17L249.87 128.87L279.31 128.98L289.67 104.42L248.86 66.27Z" fill="black"/>
<path d="M280.6 165.77L272.33 129.17H223.32L217.25 165.77H280.6Z" fill="#24285B"/>
<path d="M248.86 66.2699C248.25 54.7299 261.65 47.8699 271.01 54.6399C283.65 63.7899 301.58 79.3499 296.69 119.78C290.75 168.78 229.28 117.99 229.28 117.99L231.82 111.52C231.82 111.52 265.61 132.64 274.68 119.4C277.47 115.32 273.68 109.15 270.77 104.26C265.57 95.4199 249.6 80.3499 248.86 66.2699Z" fill="#F4A28C"/>
<path d="M231.58 111.55C231.3 109.42 227.58 106.31 226.06 105.05C225.615 104.631 225.087 104.311 224.51 104.11C224.219 104.015 223.907 104.002 223.609 104.073C223.311 104.144 223.038 104.295 222.82 104.51C222.634 104.804 222.513 105.135 222.465 105.48C222.416 105.825 222.442 106.176 222.54 106.51C222.93 108.93 223.41 112.16 224.71 114.28C225.04 114.82 228.87 118.01 229.28 117.09C229.99 115.53 231.21 113.74 231.56 112.09C231.596 111.912 231.603 111.73 231.58 111.55Z" fill="#F4A28C"/>
<path d="M252.91 47.0001C252.91 47.0001 254.24 42.8501 246.57 42.0001C238.9 41.1501 232.78 44.3901 235.3 49.8201C235.3 49.8401 241.08 54.4401 252.91 47.0001Z" fill="#2D3250"/>
<path opacity="0.46" d="M252.91 47.0001C252.91 47.0001 254.24 42.8501 246.57 42.0001C238.9 41.1501 232.78 44.3901 235.3 49.8201C235.3 49.8401 241.08 54.4401 252.91 47.0001Z" fill="white"/>
<path d="M226.321 118.107L230.278 121.308L236.366 113.782L232.409 110.581L226.321 118.107Z" fill="#24285B"/>
</g>
<defs>
<clipPath id="clip0_37_99">
<rect width="315" height="233" fill="white"/>
</clipPath>
</defs>
</svg>
